<?xml version="1.0" encoding="iso-8859-1"?>
<!-- Generator: Adobe Illustrator 19.0.0, SVG Export Plug-In . SVG Version: 6.00 Build 0)  -->
<svg xmlns="http://www.w3.org/2000/svg" xmlns:xlink="http://www.w3.org/1999/xlink" version="1.1" id="Layer_1" x="0px" y="0px" viewBox="0 0 505 505" style="enable-background:new 0 0 505 505;" xml:space="preserve" width="512" height="512">
<g>
	<g>
		<polyline style="fill:#EFEFEF;" points="121.497,201.817 121.497,8.183 383.497,8.183 383.497,201.817   "/>
		<polyline style="fill:#E0E0E0;" points="121.497,201.817 121.497,150.817 383.497,150.817 383.497,201.817   "/>
		<path style="fill:#494F56;" d="M384.98,426.717h71.15c22.85,0,41.37-18.52,41.37-41.36v-167.18c0-22.84-18.52-41.36-41.37-41.36    H48.86c-22.84,0-41.36,18.52-41.36,41.36v167.18c0,22.84,18.52,41.36,41.36,41.36h71.15"/>
		<path style="fill:#36393D;" d="M45.5,385.357v-167.18c0-22.84,18.52-41.36,41.36-41.36h-38c-22.84,0-41.36,18.52-41.36,41.36    v167.18c0,22.84,18.52,41.36,41.36,41.36h38C64.02,426.717,45.5,408.197,45.5,385.357z"/>
		<polyline style="fill:#36393D;" points="379.21,372.817 416.5,372.817 416.5,292.817 88.5,292.817 88.5,372.817 125.79,372.817       "/>
		<polygon style="fill:#EFEFEF;" points="392.5,496.817 112.494,496.817 130.578,328.183 374.415,328.183   "/>
		<circle style="fill:#40D39B;" cx="64.5" cy="233.818" r="26"/>
		<circle style="fill:#FC6947;" cx="142.5" cy="233.818" r="26"/>
	</g>
	<g>
		<path d="M121.497,160.864c4.143,0,7.5-3.358,7.5-7.5V15.683h247v137.682c0,4.142,3.357,7.5,7.5,7.5s7.5-3.358,7.5-7.5V8.183    c0-4.142-3.357-7.5-7.5-7.5h-262c-4.143,0-7.5,3.358-7.5,7.5v145.182C113.997,157.506,117.354,160.864,121.497,160.864z"/>
		<path d="M382.762,335.683h10.196c4.143,0,7.5-3.358,7.5-7.5s-3.357-7.5-7.5-7.5H112.035c-4.143,0-7.5,3.358-7.5,7.5    s3.357,7.5,7.5,7.5h10.196L109.63,453.188c-0.441,4.119,2.539,7.815,6.657,8.257c4.142,0.446,7.815-2.54,8.257-6.657    l12.772-119.104h230.36l16.476,153.635H120.841l1.019-9.496c0.442-4.118-2.538-7.815-6.657-8.257    c-4.107-0.44-7.815,2.539-8.257,6.657l-1.909,17.796c-0.228,2.116,0.456,4.229,1.878,5.813c1.423,1.583,3.451,2.487,5.579,2.487    H392.5c2.128,0,4.156-0.904,5.579-2.487c1.422-1.583,2.105-3.696,1.878-5.813L382.762,335.683z"/>
		<path d="M95.008,419.217H48.859c-18.67,0-33.859-15.189-33.859-33.86v-167.18c0-18.67,15.189-33.86,33.859-33.86H415.5    c4.143,0,7.5-3.358,7.5-7.5s-3.357-7.5-7.5-7.5H48.859C21.918,169.317,0,191.236,0,218.177v167.18    c0,26.941,21.918,48.86,48.859,48.86h46.148c4.143,0,7.5-3.358,7.5-7.5S99.15,419.217,95.008,419.217z"/>
		<path d="M456.13,169.317h-15.629c-4.143,0-7.5,3.358-7.5,7.5s3.357,7.5,7.5,7.5h15.629c18.676,0,33.87,15.189,33.87,33.86v167.18    c0,18.67-15.194,33.86-33.87,33.86h-46.148c-4.143,0-7.5,3.358-7.5,7.5s3.357,7.5,7.5,7.5h46.148    c26.947,0,48.87-21.918,48.87-48.86v-167.18C505,191.236,483.077,169.317,456.13,169.317z"/>
		<path d="M404.212,365.317c-4.143,0-7.5,3.358-7.5,7.5s3.357,7.5,7.5,7.5H416.5c4.143,0,7.5-3.358,7.5-7.5v-80    c0-4.142-3.357-7.5-7.5-7.5h-328c-4.143,0-7.5,3.358-7.5,7.5v80c0,4.142,3.357,7.5,7.5,7.5h12.288c4.143,0,7.5-3.358,7.5-7.5    s-3.357-7.5-7.5-7.5H96v-65h313v65H404.212z"/>
		<path d="M98,233.818c0-18.472-15.028-33.5-33.5-33.5S31,215.346,31,233.818s15.028,33.5,33.5,33.5S98,252.29,98,233.818z     M64.5,252.318c-10.201,0-18.5-8.299-18.5-18.5s8.299-18.5,18.5-18.5s18.5,8.299,18.5,18.5S74.701,252.318,64.5,252.318z"/>
		<path d="M176,233.818c0-18.472-15.028-33.5-33.5-33.5s-33.5,15.028-33.5,33.5s15.028,33.5,33.5,33.5S176,252.29,176,233.818z     M124,233.818c0-10.201,8.299-18.5,18.5-18.5s18.5,8.299,18.5,18.5s-8.299,18.5-18.5,18.5S124,244.019,124,233.818z"/>
		<path d="M147.497,452.817c0,4.142,3.357,7.5,7.5,7.5h195c4.143,0,7.5-3.358,7.5-7.5s-3.357-7.5-7.5-7.5h-195    C150.854,445.317,147.497,448.675,147.497,452.817z"/>
		<path d="M152.245,418.817c0,4.142,3.357,7.5,7.5,7.5h185.503c4.143,0,7.5-3.358,7.5-7.5s-3.357-7.5-7.5-7.5H159.745    C155.603,411.317,152.245,414.675,152.245,418.817z"/>
		<path d="M341.248,392.317c4.143,0,7.5-3.358,7.5-7.5s-3.357-7.5-7.5-7.5H163.745c-4.143,0-7.5,3.358-7.5,7.5s3.357,7.5,7.5,7.5    H341.248z"/>
	</g>
</g>















</svg>
